<svg width="27" height="28" viewBox="0 0 27 28" fill="none" xmlns="http://www.w3.org/2000/svg">
<path fill-rule="evenodd" clip-rule="evenodd" d="M6.75 4.08333C6.75 3.92862 6.80926 3.78025 6.91475 3.67085C7.02024 3.56146 7.16332 3.5 7.3125 3.5H19.6875C19.8367 3.5 19.9798 3.56146 20.0852 3.67085C20.1907 3.78025 20.25 3.92862 20.25 4.08333V4.66667H23.0625C23.2117 4.66667 23.3548 4.72812 23.4602 4.83752C23.5657 4.94692 23.625 5.09529 23.625 5.25V8.75C23.625 9.52355 23.3287 10.2654 22.8012 10.8124C22.2738 11.3594 21.5584 11.6667 20.8125 11.6667H19.8658C18.999 14.21 16.7552 16.079 14.0625 16.3094V19.8333H18C18.1492 19.8333 18.2923 19.8948 18.3977 20.0042C18.5032 20.1136 18.5625 20.262 18.5625 20.4167V23.9167C18.5625 24.0714 18.5032 24.2197 18.3977 24.3291C18.2923 24.4385 18.1492 24.5 18 24.5H9C8.85082 24.5 8.70774 24.4385 8.60225 24.3291C8.49676 24.2197 8.4375 24.0714 8.4375 23.9167V20.4167C8.4375 20.262 8.49676 20.1136 8.60225 20.0042C8.70774 19.8948 8.85082 19.8333 9 19.8333H12.9375V16.3094C10.2454 16.079 8.001 14.21 7.13419 11.6667H6.1875C5.44158 11.6667 4.72621 11.3594 4.19876 10.8124C3.67132 10.2654 3.375 9.52355 3.375 8.75V5.25C3.375 5.09529 3.43426 4.94692 3.53975 4.83752C3.64524 4.72812 3.78832 4.66667 3.9375 4.66667H6.75V4.08333ZM19.125 9.33333V4.66667H7.875V9.33333C7.875 12.5551 10.3933 15.1667 13.5 15.1667C16.6067 15.1667 19.125 12.5551 19.125 9.33333ZM20.25 5.83333V10.5H20.8125C21.2601 10.5 21.6893 10.3156 22.0057 9.98744C22.3222 9.65925 22.5 9.21413 22.5 8.75V5.83333H20.25ZM4.5 5.83333H6.75V10.5H6.1875C5.73995 10.5 5.31072 10.3156 4.99426 9.98744C4.67779 9.65925 4.5 9.21413 4.5 8.75V5.83333ZM9.5625 21V23.3333H17.4375V21H9.5625Z" fill="white"/>
</svg>
