<svg width="22" height="22" viewBox="0 0 22 22" fill="none" xmlns="http://www.w3.org/2000/svg">
<path d="M7.33976 2.18625C6.03019 2.54716 4.72952 2.93961 3.43888 3.36325C3.32103 3.40143 3.21627 3.47193 3.13653 3.56674C3.0568 3.66155 3.00529 3.77685 2.98788 3.8995C2.22613 9.61538 3.98613 13.7858 6.08576 16.533C6.97472 17.7078 8.03469 18.7427 9.23038 19.6034C9.70613 19.9389 10.1269 20.1809 10.4583 20.3362C10.6233 20.4146 10.758 20.4669 10.8611 20.4985C10.9062 20.5143 10.9527 20.5258 11 20.5329C11.0467 20.5253 11.0927 20.5138 11.1375 20.4985C11.242 20.4669 11.3768 20.4146 11.5418 20.3362C11.8718 20.1809 12.2939 19.9375 12.7696 19.6034C13.9653 18.7427 15.0253 17.7078 15.9143 16.533C18.0139 13.7871 19.7739 9.61538 19.0121 3.8995C18.9949 3.77679 18.9434 3.66142 18.8637 3.56658C18.7839 3.47175 18.6791 3.40128 18.5611 3.36325C17.666 3.07038 16.1549 2.59325 14.6603 2.18762C13.134 1.77375 11.7301 1.46713 11 1.46713C10.2713 1.46713 8.86601 1.77375 7.33976 2.18762V2.18625ZM6.97401 0.77C8.46588 0.364375 10.0513 0 11 0C11.9488 0 13.5341 0.364375 15.026 0.77C16.5523 1.1825 18.0909 1.67062 18.9956 1.96625C19.3739 2.09117 19.7093 2.32026 19.9632 2.62721C20.2171 2.93416 20.3793 3.30652 20.4311 3.7015C21.2506 9.85738 19.349 14.4196 17.0418 17.4378C16.0634 18.7288 14.8967 19.8658 13.5809 20.8106C13.1259 21.1376 12.6438 21.4251 12.1399 21.67C11.7549 21.8515 11.341 22 11 22C10.659 22 10.2465 21.8515 9.86013 21.67C9.35621 21.4251 8.87413 21.1376 8.41913 20.8106C7.1033 19.8658 5.93668 18.7288 4.95826 17.4378C2.65101 14.4196 0.749382 9.85738 1.56888 3.7015C1.6207 3.30652 1.78289 2.93416 2.03682 2.62721C2.29074 2.32026 2.62611 2.09117 3.00438 1.96625C4.31777 1.53561 5.64136 1.13675 6.97401 0.77V0.77Z" fill="white"/>
<path d="M13.0625 8.9375C13.0627 9.3642 12.9306 9.78047 12.6843 10.1289C12.4381 10.4774 12.0898 10.7409 11.6875 10.8831L12.2169 13.6194C12.2361 13.7189 12.2331 13.8214 12.2081 13.9197C12.1831 14.0179 12.1367 14.1094 12.0722 14.1876C12.0076 14.2658 11.9266 14.3287 11.8349 14.3719C11.7432 14.4151 11.6431 14.4375 11.5418 14.4375H10.4583C10.357 14.4373 10.257 14.4148 10.1655 14.3715C10.074 14.3282 9.99314 14.2652 9.92877 14.1871C9.86441 14.1089 9.8181 14.0175 9.79316 13.9193C9.76822 13.8212 9.76526 13.7188 9.7845 13.6194L10.3125 10.8831C9.95605 10.7571 9.64109 10.5355 9.40205 10.2426C9.16301 9.94968 9.00909 9.59669 8.9571 9.22221C8.9051 8.84772 8.95705 8.46615 9.10725 8.11919C9.25745 7.77223 9.50013 7.47324 9.80877 7.25487C10.1174 7.03651 10.4801 6.90718 10.8573 6.88103C11.2345 6.85487 11.6116 6.93289 11.9474 7.10656C12.2832 7.28023 12.5649 7.54287 12.7615 7.86577C12.9582 8.18868 13.0623 8.55943 13.0625 8.9375V8.9375Z" fill="white"/>
</svg>
