<svg width="22" height="22" viewBox="0 0 22 22" fill="none" xmlns="http://www.w3.org/2000/svg">
<path d="M19.5555 9.16667H18.9444V5.5C18.9444 5.33792 18.8801 5.18248 18.7654 5.06788C18.6508 4.95327 18.4954 4.88889 18.3333 4.88889H3.66666C3.52196 4.89125 3.38111 4.84218 3.2692 4.75041C3.15729 4.65865 3.08158 4.53014 3.05555 4.38778V4.16778C3.08158 4.02541 3.15729 3.89691 3.2692 3.80514C3.38111 3.71338 3.52196 3.66431 3.66666 3.66667H18.0767C18.2387 3.66667 18.3942 3.60228 18.5088 3.48768C18.6234 3.37307 18.6878 3.21763 18.6878 3.05556C18.6878 2.89348 18.6234 2.73804 18.5088 2.62344C18.3942 2.50883 18.2387 2.44444 18.0767 2.44444H3.66666C3.18043 2.44444 2.71411 2.6376 2.3703 2.98142C2.02648 3.32523 1.83333 3.79155 1.83333 4.27778C1.82904 4.35105 1.82904 4.42451 1.83333 4.49778V17.0683C1.83572 17.3974 1.90291 17.7227 2.03105 18.0258C2.15918 18.3289 2.34576 18.6037 2.58013 18.8347C2.8145 19.0656 3.09206 19.2482 3.39697 19.3719C3.70189 19.4956 4.02818 19.558 4.35721 19.5556H18.3333C18.4954 19.5556 18.6508 19.4912 18.7654 19.3766C18.8801 19.262 18.9444 19.1065 18.9444 18.9444V15.2778H19.5555C19.7176 15.2778 19.8731 15.2134 19.9877 15.0988C20.1023 14.9842 20.1667 14.8287 20.1667 14.6667V9.77778C20.1667 9.6157 20.1023 9.46026 19.9877 9.34566C19.8731 9.23105 19.7176 9.16667 19.5555 9.16667ZM17.7222 18.3333H4.35721C4.01732 18.3366 3.68987 18.2056 3.4461 17.9687C3.20234 17.7318 3.06198 17.4082 3.05555 17.0683V6.03778C3.25391 6.09526 3.46032 6.12003 3.66666 6.11111H17.7222V9.16667H13.4444C12.6341 9.16667 11.8569 9.48859 11.2838 10.0616C10.7108 10.6346 10.3889 11.4118 10.3889 12.2222C10.3889 13.0326 10.7108 13.8098 11.2838 14.3828C11.8569 14.9559 12.6341 15.2778 13.4444 15.2778H17.7222V18.3333ZM18.9444 14.0556H13.4444C12.9582 14.0556 12.4919 13.8624 12.1481 13.5186C11.8043 13.1748 11.6111 12.7085 11.6111 12.2222C11.6111 11.736 11.8043 11.2697 12.1481 10.9259C12.4919 10.582 12.9582 10.3889 13.4444 10.3889H18.9444V14.0556Z" fill="white"/>
<path d="M14.0617 13.1389C14.5679 13.1389 14.9783 12.7285 14.9783 12.2222C14.9783 11.716 14.5679 11.3056 14.0617 11.3056C13.5554 11.3056 13.145 11.716 13.145 12.2222C13.145 12.7285 13.5554 13.1389 14.0617 13.1389Z" fill="white"/>
</svg>
